#!OML:ASF E:/inclinewalkrobotboard/Project1/Captureday1/Session1/subject1.ASF
:FULLY-SPECIFIED
:DEGREES
101
root 0 0 0 1.0531722733316826 -3.67913077781956 1.8629925915126138
lowerback 11.924768401357351 0.8571871224177063 -0.058404840855685286
upperback -4.224403044298448 1.0869578459961977 -0.5566243389654555
thorax -11.29813809456832 0.4962797432051315 -0.8003056037982759
lowerneck -5.667607033117311 1.4462093361834074 4.565700009428211
upperneck 18.08121819008116 2.8824877798301296 -8.318928130297465
head 6.588596411470347 1.0476622636277835 -3.221695808657677
rclavicle -8.975566602243056E-16 -3.4398947685631454E-16
rhumerus 20.16018509304991 14.70987432480483 -48.14003472569664
rradius 72.54507941917132
rwrist 26.737052768153067
rhand -34.75648060991118 -57.393936854897326
rfingers 7.125020000000038
rthumb -7.917753002201218 -87.30868929410612
lclavicle 9.018112292335038E-16 -1.7504295813962534E-15
lhumerus 20.851279359604966 -12.751597394344174 45.28180274122191
lradius 69.94604308380234
lwrist -22.27545900621317
lhand -44.77490316136826 -69.72522841262169
lfingers 7.125020000000029
lthumb -17.566293218560684 -40.52701072520482
rfemur -24.894427827028725 -2.212265061904499 17.208277508404542
rtibia 54.04865662685919
rfoot -29.07956364917775 -16.73297537852484
rtoes -17.672089720756063
lfemur -26.677160028455244 2.4058578126083656 -18.29478434697369
ltibia 54.16513262233358
lfoot -31.061625837052354 -3.528370181735046
ltoes -19.631921867829377
102
root 0 0 0 1.0530351160410318 -3.679371654197958 1.8629627022959763
lowerback 11.924769250310227 0.857162810132366 -0.05834833259577041
upperback -4.224318727017699 1.086936650174363 -0.5565736458586388
thorax -11.298041429481003 0.49626853013926087 -0.800276667094875
lowerneck -5.667113423633038 1.4461383652650035 4.565751286635189
upperneck 18.08091444219359 2.8824098109339666 -8.31912828668727
head 6.588414483462978 1.047630728713155 -3.2217745734875445
rclavicle -8.970239061035486E-16 -3.4331922668090035E-16
rhumerus 20.16020710487821 14.709946843573492 -48.14002152853514
rradius 72.54510892750967
rwrist 26.736995057252155
rhand -34.75632707597539 -57.39367168704598
rfingers 7.125020000000038
rthumb -7.917608962762356 -87.30844026732112
lclavicle 9.018042760877668E-16 -1.7498715995547822E-15
lhumerus 20.85131566987109 -12.751754184607897 45.28167953334631
lradius 69.94619212465525
lwrist -22.275508648330888
lhand -44.77483508965072 -69.72466523093573
lfingers 7.125020000000029
lthumb -17.5662292284218 -40.52645334089382
rfemur -24.89439815421872 -2.212288871461461 17.20836035484573
rtibia 54.0487116172362
rfoot -29.079474364807222 -16.732927681275033
rtoes -17.671998568874336
lfemur -26.677161806979267 2.405849300391843 -18.294754530121914
ltibia 54.16607427976109
lfoot -31.061187014602158 -3.5287817287262544
ltoes -19.631610766603306
103
root 0 0 0 1.0528099530544024 -3.679785834982648 1.8629075700896254
lowerback 11.924765681570745 0.8571222454981788 -0.05825591899475213
upperback -4.224176370470607 1.086901337915039 -0.5564877881829522
thorax -11.297875507774439 0.49624993119884897 -0.8002256930880145
lowerneck -5.6663146772717035 1.4460234467949253 4.565831645067754
upperneck 18.08042132262176 2.8822851413436616 -8.319450855671782
head 6.588119725897028 1.047580330801829 -3.221900996426184
rclavicle -8.961554980988588E-16 -3.4378261026905616E-16
rhumerus 20.160514692054875 14.710287793855402 -48.139872848003975
rradius 72.54531428719177
rwrist 26.736934696377524
rhand -34.755830337357814 -57.39305457707727
rfingers 7.125020000000038
rthumb -7.917134594180958 -87.30781284783971
lclavicle 9.029793259281641E-16 -1.750218820948599E-15
lhumerus 20.851507071200686 -12.752058978688588 45.28132938528729
lradius 69.94641678942634
lwrist -22.275573260605192
lhand -44.774675423689104 -69.72373191834622
lfingers 7.125020000000029
lthumb -17.566077185475635 -40.52550158460532
rfemur -24.894414098211662 -2.2122881647820423 17.208382723172786
rtibia 54.04878220702846
rfoot -29.07946316259831 -16.732905231110387
rtoes -17.671881153364453
lfemur -26.677024050695366 2.4059522737195795 -18.29474816006548
ltibia 54.166260311747834
lfoot -31.060947080602915 -3.528774018591721
ltoes -19.631695875719668
104
root 0 0 0 1.053287945567586 -3.6789501565448828 1.8630064255747683
lowerback 11.924770800471492 0.8572036625337421 -0.05845822859467428
upperback -4.224478839120366 1.0869716387479529 -0.5566617643296401
thorax -11.298226369093836 0.4962864534770753 -0.8003206536589681
lowerneck -5.667985380069137 1.4462572170211825 4.565620965708429
upperneck 18.08146824453766 2.8825342548995594 -8.31872214917113
head 6.588742935427857 1.0476818617120762 -3.2216116704484805
rclavicle -8.971413698162766E-16 -3.406603031725503E-16
rhumerus 20.161898235333737 14.711447510495356 -48.13972322139671
rradius 72.54652669011246
rwrist 26.737105509736164
rhand -34.75554661945802 -57.39366503869282
rfingers 7.125020000000038
rthumb -7.916846358118907 -87.3086258961527
lclavicle 8.975454494296232E-16 -1.7417917515372985E-15
lhumerus 20.852038900609983 -12.753623739364167 45.28335530544064
lradius 69.94781919476311
lwrist -22.27377504274178
lhand -44.77544916768681 -69.72572738086296
lfingers 7.125020000000029
lthumb -17.566818316128796 -40.528008903296644
rfemur -24.894058539504403 -2.2123299755447996 17.20809734779213
rtibia 54.0482516446129
rfoot -29.078207532046637 -16.733599334494063
rtoes -17.672374180023535
lfemur -26.680284084197837 2.4062580860096134 -18.29453410087978
ltibia 54.164923216829926
lfoot -31.062104892286335 -3.5260160294799068
ltoes -19.631443753399026
